Title:
Inc'h Allah

Country:
Canada/2012

Language:
English | French | Arabic | Hebrew

Subtitle:
English

Director:
Anaïs Barbeau-Lavalette

Writer:
Anaïs Barbeau-Lavalette (screenplay)

Stars:
Evelyne Brochu, Sabrina Ouazani, Sivan Levy

Synopsis:
Chloe is a young Canadian doctor who divides her time between Ramallah, where she works with the Red Crescent, and Jerusalem, where she lives next door to her friend Ava, a young Israeli soldier. Increasingly sensitive to the conflict, Chloe goes daily through the checkpoint between the two cities to get to the refugee camp where she monitors the pregnancies of young women. As she becomes friends with Rand, one of her patients, Chloe learns more about life in the occupied territories and gets to spend some time with Rand's family. Torn between the two sides of the conflict, Chloe tries as best she can to build bridges between her friends but suffers from remaining a perpetual foreigner to both sides. Following up her acclaimed debut-feature Le ring, filmmaker Anais Barbeau-Lavalette delivers with Inch'Allah the moving tale a young woman's encounter with war and its everyday life. Avoiding any political agenda, Chloe's story questions how one can internalize a foreign conflict without ... 

Trivia:
Official Selection Berlin International Film Festival 2012

Imdb: 
http://www.imdb.com/title/tt2336960/?ref_=fn_al_tt_1

Trailer: 
http://www.cinoche.com/films/inch-allah/bandes-annonces/index.html

Media Info:

General
Complete name                            : Inch.Allah.2012.DVDRip.AC3.HORiZON-ArtSubs.avi
Format                                   : AVI
Format/Info                              : Audio Video Interleave
File size                                : 1.36 GiB
Duration                                 : 1h 41mn
Overall bit rate                         : 1 932 Kbps
Writing application                      : FairUse Wizard - http://fairusewizard.com
Writing library                          : The best and REALLY easy backup tool

Video
ID                                       : 0
Format                                   : MPEG-4 Visual
Format profile                           : Advanced Simple@L5
Format settings, BVOP                    : 1
Format settings, QPel                    : No
Format settings, GMC                     : No warppoints
Format settings, Matrix                  : Default (MPEG)
Muxing mode                              : Packed bitstream
Codec ID                                 : XVID
Codec ID/Hint                            : XviD
Duration                                 : 1h 41mn
Bit rate                                 : 1 475 Kbps
Width                                    : 672 pixels
Height                                   : 288 pixels
Display aspect ratio                     : 2.35:1
Frame rate                               : 23.976 fps
Color space                              : YUV
Chroma subsampling                       : 4:2:0
Bit depth                                : 8 bits
Scan type                                : Progressive
Compression mode                         : Lossy
Bits/(Pixel*Frame)                       : 0.318
Stream size                              : 1.04 GiB (76%)
Writing library                          : XviD 1.2.0.dev47 (UTC 2006-11-01)

Audio
ID                                       : 1
Format                                   : AC-3
Format/Info                              : Audio Coding 3
Mode extension                           : CM (complete main)
Format settings, Endianness              : Big
Codec ID                                 : 2000
Duration                                 : 1h 41mn
Bit rate mode                            : Constant
Bit rate                                 : 448 Kbps
Channel(s)                               : 6 channels
Channel positions                        : Front: L C R, Side: L R, LFE
Sampling rate                            : 48.0 KHz
Bit depth                                : 16 bits
Compression mode                         : Lossy
Stream size                              : 324 MiB (23%)
Alignment                                : Split accross interleaves
Interleave, duration                     : 42 ms (1.00 video frame)
Interleave, preload duration             : 500 ms

